<?xml version="1.0" encoding="utf-8"?>
<!-- Generator: Adobe Illustrator 20.0.0, SVG Export Plug-In . SVG Version: 6.00 Build 0)  -->
<svg version="1.1" id="Layer_1" xmlns="http://www.w3.org/2000/svg" xmlns:xlink="http://www.w3.org/1999/xlink" x="0px" y="0px"
	 viewBox="0 0 1387.6 328.6" style="enable-background:new 0 0 1387.6 328.6;" xml:space="preserve">
<style type="text/css">
	.st0{opacity:0.5;fill:#FFFFFF;}
	.st1{fill:#66BB6A;}
	.st2{fill:#42A047;}
	.st3{fill:#6E4D42;}
	.st4{fill:#4E352E;}
	.st5{fill:#327E3E;}
	.st6{fill:#1E5F30;}
	.st7{fill:#F5F5F6;}
	.st8{fill:#E1E1E0;}
	.st9{fill:#5D4137;}
</style>
<g>
	<path class="st0" d="M1143.8,181.1v-8.8h4.8v-1.7H1074v1.7h4.5v8.8h-9.5v19.2h-14.5v-44.3h-59.5v-9.7h-4.6v9.7h-8.5v73h-16.1v-43.6
		h-10.5V80.7l-36.7-16.6l-36.7,16.6v50.6h-12.5v-12.9h-12.2v12.9h-10v-5h-8.4v5h-7.4V42h-14.7v-6.6h10.3V31h-63.6v4.4h10.3V42h-14.7
		v89.3v54.2h-16.1V42h-7.3V28.9h-22.4V42H700V28.9h-22.4V42h-7.3v140.2h-33.2v-12.1h-14.6v12.1h-4.8v27h-35.1v-40.4l-64-25.7v104
		h48.5h15.5h35.1h18h34.6h16h28.3h28.1h16.1h72.4h25.8h24.7h12.6h32.1h28.6h10.5h16.1h55.2h2.2h15.3h14.5h9.2h75.1v-65.9H1143.8z
		 M779.7,35.4h30.7V42h-30.7V35.4z M1083.1,181.1v-8.8h56.1v8.8H1083.1z"/>
	<rect x="0" y="246.9" class="st1" width="1387.4" height="82.1"/>
	<g>
		<path class="st1" d="M383.1,246.9H0v-52.1c29.4-19.1,61.8-36.3,119.8-36.3C251.4,158.6,251.4,246.9,383.1,246.9z"/>
		<path class="st2" d="M119.8,246.9h263.3c-131.7,0-131.7-88.4-263.3-88.4h0V246.9z"/>
	</g>
	<g>
		<path class="st1" d="M719.8,246.9c-168.3,0-168.3-113-336.7-113c-168.4,0-168.4,113-336.7,113H719.8z"/>
		<path class="st2" d="M383.1,246.9h336.7c-168.3,0-168.3-113-336.7-113h0V246.9z"/>
	</g>
	<g>
		<path class="st1" d="M1387.4,156.8v90.2H1069c138.9,0,138.9-93.2,277.8-93.2C1361.9,153.7,1375.3,154.8,1387.4,156.8z"/>
		<path class="st2" d="M1387.4,156.8v90.2h-40.7v-93.2C1361.9,153.7,1375.3,154.8,1387.4,156.8z"/>
	</g>
	<g>
		<path class="st3" d="M284.7,218.6v55.5c0,1.9,2.4,3.5,5.3,3.5c2.9,0,5.3-1.6,5.3-3.5v-55.5H284.7z"/>
		<path class="st4" d="M295.2,218.6v55.5c0,1.9-2.4,3.5-5.3,3.5v-59H295.2z"/>
		<ellipse class="st5" cx="289.9" cy="185.1" rx="35" ry="65.8"/>
		<path class="st6" d="M289.9,119.3V251c19.3,0,35-29.5,35-65.8C324.9,148.8,309.3,119.3,289.9,119.3z"/>
		<circle class="st6" cx="273.7" cy="225.1" r="3.4"/>
		<circle class="st6" cx="282.8" cy="200.6" r="3.4"/>
		<circle class="st6" cx="261.6" cy="182.7" r="3.4"/>
		<circle class="st6" cx="279.4" cy="159.4" r="3.4"/>
		<circle class="st5" cx="297.1" cy="133.9" r="3.4"/>
		<circle class="st5" cx="310.8" cy="150.5" r="3.4"/>
		<circle class="st5" cx="297.1" cy="169.9" r="3.4"/>
		<circle class="st5" cx="310.8" cy="180.9" r="3.4"/>
		<circle class="st5" cx="295.9" cy="207.4" r="3.4"/>
		<circle class="st5" cx="306.8" cy="230.4" r="3.4"/>
		<circle class="st6" cx="273.7" cy="139.4" r="3.4"/>
	</g>
	<g>
		<path class="st3" d="M155.9,181.6v75.8c0,2.6,3.2,4.7,7.2,4.7c4,0,7.2-2.1,7.2-4.7v-75.8H155.9z"/>
		<path class="st4" d="M170.3,181.6v75.8c0,2.6-3.2,4.7-7.2,4.7v-80.5H170.3z"/>
		<ellipse class="st5" cx="163.1" cy="135.9" rx="47.8" ry="89.9"/>
		<path class="st6" d="M163.1,46v179.9c26.4,0,47.8-40.3,47.8-89.9S189.5,46,163.1,46z"/>
		<circle class="st6" cx="140.9" cy="190.5" r="4.6"/>
		<circle class="st6" cx="153.3" cy="157.1" r="4.6"/>
		<circle class="st6" cx="124.4" cy="132.6" r="4.6"/>
		<circle class="st6" cx="148.7" cy="100.7" r="4.6"/>
		<circle class="st5" cx="172.9" cy="65.9" r="4.6"/>
		<circle class="st5" cx="191.6" cy="88.6" r="4.6"/>
		<circle class="st5" cx="172.9" cy="115.2" r="4.6"/>
		<circle class="st5" cx="191.6" cy="130.2" r="4.6"/>
		<circle class="st5" cx="171.3" cy="166.3" r="4.6"/>
		<circle class="st5" cx="186.1" cy="197.8" r="4.6"/>
		<circle class="st6" cx="140.9" cy="73.4" r="4.6"/>
	</g>
	<g>
		<path class="st3" d="M1207.8,203.4v65c0,2.2,2.8,4.1,6.2,4.1c3.4,0,6.2-1.8,6.2-4.1v-65H1207.8z"/>
		<path class="st4" d="M1220.2,203.4v65c0,2.2-2.8,4.1-6.2,4.1v-69.1H1220.2z"/>
		<ellipse class="st5" cx="1214" cy="164.2" rx="41" ry="77.1"/>
		<path class="st6" d="M1214,87v154.3c22.6,0,41-34.5,41-77.1C1255,121.6,1236.7,87,1214,87z"/>
		<circle class="st6" cx="1195" cy="211" r="3.9"/>
		<circle class="st6" cx="1205.6" cy="182.3" r="3.9"/>
		<circle class="st6" cx="1180.8" cy="161.3" r="3.9"/>
		<circle class="st6" cx="1201.7" cy="134" r="3.9"/>
		<circle class="st5" cx="1222.4" cy="104.1" r="3.9"/>
		<circle class="st5" cx="1238.5" cy="123.6" r="3.9"/>
		<circle class="st5" cx="1222.4" cy="146.3" r="3.9"/>
		<circle class="st5" cx="1238.5" cy="159.2" r="3.9"/>
		<circle class="st5" cx="1221.1" cy="190.2" r="3.9"/>
		<circle class="st5" cx="1233.8" cy="217.2" r="3.9"/>
		<circle class="st6" cx="1195" cy="110.5" r="3.9"/>
	</g>
	<g>
		<path class="st5" d="M596.5,270.2c-7.4,0-13.5,6-13.5,13.5H610C610,276.2,604,270.2,596.5,270.2z"/>
		<path class="st6" d="M609,274.8c-4.9,0-8.9,4-8.9,8.9h17.7C617.8,278.7,613.8,274.8,609,274.8z"/>
	</g>
	<g>
		<path class="st3" d="M1320.4,205.5V298c0,3.2,3.9,5.8,8.8,5.8c4.9,0,8.8-2.6,8.8-5.8v-92.5H1320.4z"/>
		<path class="st4" d="M1338,205.5V298c0,3.2-3.9,5.8-8.8,5.8v-98.3H1338z"/>
		<ellipse class="st5" cx="1329.2" cy="149.7" rx="58.4" ry="109.8"/>
		<path class="st6" d="M1329.2,39.8v219.6c32.2,0,58.4-49.2,58.4-109.8C1387.6,89,1361.5,39.8,1329.2,39.8z"/>
		<circle class="st6" cx="1302.2" cy="216.3" r="5.6"/>
		<circle class="st6" cx="1317.3" cy="175.5" r="5.6"/>
		<circle class="st6" cx="1281.9" cy="145.6" r="5.6"/>
		<circle class="st6" cx="1311.7" cy="106.7" r="5.6"/>
		<circle class="st5" cx="1341.2" cy="64.1" r="5.6"/>
		<circle class="st5" cx="1364" cy="91.9" r="5.6"/>
		<circle class="st5" cx="1341.2" cy="124.3" r="5.6"/>
		<circle class="st5" cx="1364" cy="142.7" r="5.6"/>
		<circle class="st5" cx="1339.2" cy="186.7" r="5.6"/>
		<circle class="st5" cx="1357.4" cy="225.2" r="5.6"/>
		<circle class="st6" cx="1302.2" cy="73.3" r="5.6"/>
	</g>
	<g>
		<path class="st5" d="M1338.1,295c-4.9,0-8.9,4-8.9,8.9h17.7C1346.9,298.9,1343,295,1338.1,295z"/>
		<path class="st6" d="M1355.1,288.9c-8.2,0-14.9,6.7-14.9,14.9h29.9C1370,295.6,1363.4,288.9,1355.1,288.9z"/>
	</g>
	<g>
		<path class="st7" d="M925.3,281.8c-7.8,0-14.2,6.3-14.2,14.2h28.4C939.5,288.2,933.2,281.8,925.3,281.8z"/>
		<path class="st8" d="M939.5,296c0-7.8-6.3-14.2-14.2-14.2V296H939.5z"/>
	</g>
	<g>
		<path class="st7" d="M254.9,271.3c-7.8,0-14.2,6.4-14.2,14.2h28.4C269.1,277.7,262.8,271.3,254.9,271.3z"/>
		<path class="st8" d="M269.1,285.5c0-7.8-6.4-14.2-14.2-14.2v14.2H269.1z"/>
	</g>
	<g>
		<path class="st7" d="M1101.9,250.6c-4.1,0-7.5,3.3-7.5,7.5h14.9C1109.4,253.9,1106.1,250.6,1101.9,250.6z"/>
		<path class="st8" d="M1109.4,258.1c0-4.1-3.3-7.5-7.5-7.5v7.5H1109.4z"/>
	</g>
	<g>
		<path class="st7" d="M345.7,260.6c-4.1,0-7.5,3.3-7.5,7.5h14.9C353.2,264,349.8,260.6,345.7,260.6z"/>
		<path class="st8" d="M353.2,268.1c0-4.1-3.3-7.5-7.5-7.5v7.5H353.2z"/>
	</g>
	<g>
		<path class="st7" d="M1246.4,265.5c-6,0-10.9,4.9-10.9,10.9h21.8C1257.3,270.3,1252.4,265.5,1246.4,265.5z"/>
		<path class="st8" d="M1257.3,276.3c0-6-4.9-10.9-10.9-10.9v10.9H1257.3z"/>
	</g>
	<g>
		<g>
			<path class="st3" d="M464.4,137.9v16.3c0,0.6,0.7,1,1.5,1c0.9,0,1.5-0.5,1.5-1v-16.3H464.4z"/>
			<path class="st9" d="M467.5,137.9v16.3c0,0.6-0.7,1-1.5,1v-17.3H467.5z"/>
		</g>
		<polygon class="st5" points="466,101.7 451.7,146.5 480.2,146.5 		"/>
		<polygon class="st6" points="480.2,146.5 466,101.7 466,146.5 		"/>
	</g>
	<g>
		<g>
			<path class="st3" d="M344.6,126.6v11.9c0,0.4,0.5,0.7,1.1,0.7c0.6,0,1.1-0.3,1.1-0.7v-11.9H344.6z"/>
			<path class="st9" d="M346.8,126.6v11.9c0,0.4-0.5,0.7-1.1,0.7v-12.7H346.8z"/>
		</g>
		<polygon class="st5" points="345.7,100.2 335.3,133 356.1,133 		"/>
		<polygon class="st6" points="356.1,133 345.7,100.2 345.7,133 		"/>
	</g>
	<g>
		<g>
			<path class="st3" d="M562.7,209.5v16.3c0,0.6,0.7,1,1.5,1c0.9,0,1.5-0.5,1.5-1v-16.3H562.7z"/>
			<path class="st9" d="M565.8,209.5v16.3c0,0.6-0.7,1-1.5,1v-17.3H565.8z"/>
		</g>
		<polygon class="st5" points="564.2,173.3 550,218.1 578.5,218.1 		"/>
		<polygon class="st6" points="578.5,218.1 564.2,173.3 564.2,218.1 		"/>
	</g>
	<g>
		<g>
			<path class="st3" d="M1143.4,229v16.3c0,0.6,0.7,1,1.5,1s1.5-0.5,1.5-1V229H1143.4z"/>
			<path class="st9" d="M1146.5,229v16.3c0,0.6-0.7,1-1.5,1V229H1146.5z"/>
		</g>
		<polygon class="st5" points="1145,192.8 1130.7,237.6 1159.2,237.6 		"/>
		<polygon class="st6" points="1159.2,237.6 1145,192.8 1145,237.6 		"/>
	</g>
	<g>
		<g>
			<path class="st3" d="M225,182.7V199c0,0.6,0.7,1,1.6,1c0.9,0,1.5-0.5,1.5-1v-16.3H225z"/>
			<path class="st9" d="M228.1,182.7V199c0,0.6-0.7,1-1.5,1v-17.3H228.1z"/>
		</g>
		<polygon class="st5" points="226.5,146.5 212.3,191.4 240.8,191.4 		"/>
		<polygon class="st6" points="240.8,191.4 226.5,146.5 226.5,191.4 		"/>
	</g>
	<g>
		<g>
			<path class="st3" d="M21.7,179.4v16.3c0,0.6,0.7,1,1.5,1c0.9,0,1.5-0.5,1.5-1v-16.3H21.7z"/>
			<path class="st9" d="M24.8,179.4v16.3c0,0.6-0.7,1-1.5,1v-17.3H24.8z"/>
		</g>
		<polygon class="st5" points="23.2,143.2 9,188 37.4,188 		"/>
		<polygon class="st6" points="37.4,188 23.2,143.2 23.2,188 		"/>
	</g>
	<g>
		<g>
			<path class="st3" d="M402.9,205.2v25.5c0,0.9,1.1,1.6,2.4,1.6c1.3,0,2.4-0.7,2.4-1.6v-25.5H402.9z"/>
			<path class="st9" d="M407.7,205.2v25.5c0,0.9-1.1,1.6-2.4,1.6v-27.1H407.7z"/>
		</g>
		<polygon class="st5" points="405.3,148.6 383.1,218.7 427.5,218.7 		"/>
		<polygon class="st6" points="427.5,218.7 405.3,148.6 405.3,218.7 		"/>
	</g>
	<g>
		<path class="st3" d="M54.7,213.4v48.5c0,1.7,2.1,3,4.6,3c2.5,0,4.6-1.4,4.6-3v-48.5H54.7z"/>
		<path class="st4" d="M63.9,213.4v48.5c0,1.7-2.1,3-4.6,3v-51.6H63.9z"/>
		<ellipse class="st5" cx="59.3" cy="184.1" rx="30.6" ry="57.6"/>
		<path class="st6" d="M59.3,126.6v115.1c16.9,0,30.6-25.8,30.6-57.6S76.2,126.6,59.3,126.6z"/>
		<circle class="st6" cx="45.1" cy="219.1" r="2.9"/>
		<circle class="st6" cx="53" cy="197.7" r="2.9"/>
		<circle class="st6" cx="34.5" cy="182" r="2.9"/>
		<circle class="st6" cx="50.1" cy="161.6" r="2.9"/>
		<circle class="st5" cx="65.5" cy="139.3" r="2.9"/>
		<circle class="st5" cx="77.5" cy="153.9" r="2.9"/>
		<circle class="st5" cx="65.5" cy="170.8" r="2.9"/>
		<circle class="st5" cx="77.5" cy="180.5" r="2.9"/>
		<circle class="st5" cx="64.5" cy="203.6" r="2.9"/>
		<circle class="st5" cx="74" cy="223.7" r="2.9"/>
		<circle class="st6" cx="45.1" cy="144.1" r="2.9"/>
	</g>
	<g>
		<path class="st5" d="M52.3,262.2c-4.4,0-7.9,3.5-7.9,7.9h15.8C60.2,265.7,56.7,262.2,52.3,262.2z"/>
		<path class="st6" d="M67.5,256.8c-7.3,0-13.3,6-13.3,13.3h26.6C80.8,262.8,74.8,256.8,67.5,256.8z"/>
	</g>
</g>
</svg>
